<?xml version="1.0" encoding="UTF-8"?>
<svg version="1.1" xmlns="http://www.w3.org/2000/svg" width="112" height="109">
<path d="M0 0 C36.96 0 73.92 0 112 0 C112 35.97 112 71.94 112 109 C75.04 109 38.08 109 0 109 C0 73.03 0 37.06 0 0 Z " fill="#EDEEF3" transform="translate(0,0)"/>
<path d="M0 0 C1.41655793 -0.0272415 2.83327045 -0.04650467 4.25 -0.0625 C5.03890625 -0.07410156 5.8278125 -0.08570312 6.640625 -0.09765625 C8.90691002 -0.00385306 10.8288895 0.36758937 13 1 C13 2.65 13 4.3 13 6 C14.6396875 6.433125 14.6396875 6.433125 16.3125 6.875 C20 8 20 8 23 10 C26.14221967 9.68493373 26.14221967 9.68493373 29 9 C31.31 11.97 33.62 14.94 36 18 C35.34 19.32 34.68 20.64 34 22 C33.93502725 24.4987391 33.93502725 24.4987391 34.3125 27.0625 C34.46138672 28.34833984 34.46138672 28.34833984 34.61328125 29.66015625 C34.96094837 32.14501141 34.96094837 32.14501141 36 35 C37.485 35.495 37.485 35.495 39 36 C37.97560976 44.70731707 37.97560976 44.70731707 36 48 C35.0925 48.28875 34.185 48.5775 33.25 48.875 C28.82261797 50.40755532 26.43051513 53.03216257 24 57 C23.96125079 58.66621616 23.9549714 60.33394172 24 62 C20.64354991 65.55388833 17.81279961 66.55229771 13 67 C12.34 66.01 11.68 65.02 11 64 C8.11404054 63.41518879 8.11404054 63.41518879 4.875 63.3125 C3.77929688 63.24675781 2.68359375 63.18101563 1.5546875 63.11328125 C0.29011719 63.05720703 0.29011719 63.05720703 -1 63 C-1.66 63.99 -2.32 64.98 -3 66 C-7.9635841 65.5272777 -11.23071739 64.32055849 -15 61 C-15.04443347 59.00049364 -15.03920815 56.99961564 -15 55 C-16.26141016 52.26414152 -17.79847406 50.0593085 -20 48 C-23.16999144 46.95382909 -23.16999144 46.95382909 -26 47 C-27.29243536 42.8803623 -28.26252625 39.33168317 -28 35 C-25.525 34.505 -25.525 34.505 -23 34 C-23.020625 32.783125 -23.04125 31.56625 -23.0625 30.3125 C-23.07128345 27.81800062 -22.95153704 25.76845475 -22.4375 23.3125 C-21.79403409 20.9686819 -21.79403409 20.9686819 -22.8125 18.6875 C-23.12792183 14.16645378 -19.83042951 11.30626983 -17 8 C-16.0925 8.391875 -15.185 8.78375 -14.25 9.1875 C-13.1775 9.455625 -12.105 9.72375 -11 10 C-8.92022703 8.77409808 -8.92022703 8.77409808 -7 7 C-5.01985568 6.27648573 -3.02178685 5.59734611 -1 5 C-0.67 3.35 -0.34 1.7 0 0 Z " fill="#263B6C" transform="translate(50,32)"/>
<path d="M0 0 C4.00164659 2.75668987 7.93914589 6.21221429 9.4609375 10.9609375 C10.69305697 17.88818697 9.31340577 22.99151719 5.8125 28.9375 C2.76205914 32.97727303 1.33791351 33.71468679 -3.6640625 34.4453125 C-14.94660636 34.95714388 -14.94660636 34.95714388 -19.4375 31.3125 C-24.32637493 25.89577739 -25.86344429 20.94503213 -25.67578125 13.6953125 C-24.71500592 8.26885341 -21.32139506 4.69093315 -17.171875 1.28125 C-12.0364419 -2.19628738 -5.69197227 -1.89732409 0 0 Z " fill="#E7EAF0" transform="translate(63.1875,49.0625)"/>
<path d="M0 0 C2.58702659 0.99559041 4.71878865 2.3108549 7.04272461 3.82519531 C8.01258301 4.45635254 8.98244141 5.08750977 9.98168945 5.73779297 C15.31713008 9.28331173 20.61875849 12.87624229 25.90600586 16.49316406 C28.07880798 17.97678701 30.25220165 19.45954103 32.42553711 20.94238281 C33.37146729 21.58908936 34.31739746 22.2357959 35.29199219 22.90209961 C38.21436999 24.88778848 41.15104219 26.84990455 44.09350586 28.80566406 C43.10350586 30.45566406 42.11350586 32.10566406 41.09350586 33.80566406 C27.2238603 31.19715274 11.45706485 15.8093246 0.09350586 7.80566406 C-2.55146926 9.07383258 -4.96989732 10.44913327 -7.37524414 12.12597656 C-8.02299805 12.57497314 -8.67075195 13.02396973 -9.33813477 13.48657227 C-10.02069336 13.96312256 -10.70325195 14.43967285 -11.40649414 14.93066406 C-16.37492423 18.37725814 -21.35838767 21.78924691 -26.40649414 25.11816406 C-30.51932782 27.83207472 -34.45382844 30.67619674 -38.28540039 33.77441406 C-39.90649414 34.80566406 -39.90649414 34.80566406 -42.90649414 34.80566406 C-43.56649414 32.82566406 -44.22649414 30.84566406 -44.90649414 28.80566406 C-28.5375621 16.80566406 -28.5375621 16.80566406 -25.90649414 16.80566406 C-25.90649414 13.50566406 -25.90649414 10.20566406 -25.90649414 6.80566406 C-22.93649414 6.80566406 -19.96649414 6.80566406 -16.90649414 6.80566406 C-16.57649414 7.46566406 -16.24649414 8.12566406 -15.90649414 8.80566406 C-14.94227539 8.144375 -13.97805664 7.48308594 -12.98461914 6.80175781 C-11.70901981 5.94823179 -10.43295353 5.09540332 -9.15649414 4.24316406 C-8.52227539 3.80552734 -7.88805664 3.36789062 -7.23461914 2.91699219 C-2.44750657 -0.24948332 -2.44750657 -0.24948332 0 0 Z " fill="#62212D" transform="translate(56.906494140625,3.1943359375)"/>
<path d="M0 0 C1.21236328 0.01353516 1.21236328 0.01353516 2.44921875 0.02734375 C3.37154297 0.04474609 3.37154297 0.04474609 4.3125 0.0625 C2.86622351 4.72846345 0.13573235 7.74404736 -3.1875 11.1875 C-5.90274837 14.04307129 -8.49210488 16.76940732 -10.6875 20.0625 C-8.0475 20.3925 -5.4075 20.7225 -2.6875 21.0625 C-3.6775 25.3525 -4.6675 29.6425 -5.6875 34.0625 C-10.85025265 32.77181184 -13.43233317 30.83704621 -16.5 26.5 C-18.1974275 21.58639409 -18.59672464 17.19780076 -17.6875 12.0625 C-13.97155568 4.72681703 -8.40041163 -0.1217451 0 0 Z " fill="#E7E9EE" transform="translate(55.6875,47.9375)"/>
<path d="M0 0 C1.40907283 2.81814566 0.50872691 4.17277204 -0.4375 7.125 C-0.72496094 8.03507812 -1.01242188 8.94515625 -1.30859375 9.8828125 C-1.53675781 10.58148438 -1.76492187 11.28015625 -2 12 C0.97 12 3.94 12 7 12 C-2.14359305 24.34385061 -2.14359305 24.34385061 -7 30 C-7.33 30 -7.66 30 -8 30 C-8.17835515 25.45194365 -7.99785435 22.1205746 -6 18 C-8.97 18 -11.94 18 -15 18 C-12.12525291 13.44147246 -8.93814014 9.54546392 -5.25 5.625 C-4.74339844 5.07972656 -4.23679687 4.53445312 -3.71484375 3.97265625 C-2.4803065 2.64494637 -1.24068282 1.32196894 0 0 Z " fill="#353E65" transform="translate(59,51)"/>
<path d="M0 0 C0.99 0 1.98 0 3 0 C4.39435943 5.96992409 3.88738997 11.81038721 3.5625 17.875 C3.51029297 18.94492187 3.45808594 20.01484375 3.40429688 21.1171875 C3.27524601 23.74513239 3.14030848 26.37263613 3 29 C3.66 29 4.32 29 5 29 C5.1079859 31.43868168 5.18726589 33.87259133 5.25 36.3125 C5.28351563 37.00279297 5.31703125 37.69308594 5.3515625 38.40429688 C5.390625 40.42578125 5.390625 40.42578125 5 44 C2.984375 45.98046875 2.984375 45.98046875 1 47 C-1.45605371 44.44725126 -1.98802939 43.14109357 -2.29296875 39.546875 C-2.25816406 38.29390625 -2.22335938 37.0409375 -2.1875 35.75 C-2.16042969 34.48671875 -2.13335937 33.2234375 -2.10546875 31.921875 C-2.07066406 30.95765625 -2.03585938 29.9934375 -2 29 C-1.34 29 -0.68 29 0 29 C-0.05329468 27.84213989 -0.05329468 27.84213989 -0.10766602 26.66088867 C-0.26508878 23.16999288 -0.41389578 19.67878183 -0.5625 16.1875 C-0.61857422 14.97255859 -0.67464844 13.75761719 -0.73242188 12.50585938 C-0.78076172 11.34248047 -0.82910156 10.17910156 -0.87890625 8.98046875 C-0.9260376 7.90692139 -0.97316895 6.83337402 -1.02172852 5.72729492 C-1 3 -1 3 0 0 Z " fill="#5F212C" transform="translate(96,43)"/>
<path d="M0 0 C1.65 0 3.3 0 5 0 C5.14027702 15.69543984 4.73964434 31.32190062 4 47 C3.01 47 2.02 47 1 47 C0.26035566 31.32190062 -0.14027702 15.69543984 0 0 Z " fill="#6E3640" transform="translate(13,43)"/>
<path d="M0 0 C0.33 0 0.66 0 1 0 C2.89135871 7.61447795 3.24856955 14.80209671 3.125 22.625 C3.11597656 23.72457031 3.10695313 24.82414062 3.09765625 25.95703125 C3.07434124 28.63825758 3.0416204 31.31900607 3 34 C2.01 34 1.02 34 0 34 C0 22.78 0 11.56 0 0 Z " fill="#75454C" transform="translate(14,56)"/>
<path d="M0 0 C1 2 1 2 0.3125 4.5625 C-0.3371875 5.7690625 -0.3371875 5.7690625 -1 7 C-2.33333333 7.33333333 -3.66666667 7.66666667 -5 8 C-6.26145768 10.36186139 -6.26145768 10.36186139 -7 13 C-7.33 13.99 -7.66 14.98 -8 16 C-7.01 16 -6.02 16 -5 16 C-5 16.66 -5 17.32 -5 18 C-8.3 18 -11.6 18 -15 18 C-12.12525291 13.44147246 -8.93814014 9.54546392 -5.25 5.625 C-4.74339844 5.07972656 -4.23679687 4.53445312 -3.71484375 3.97265625 C-2.4803065 2.64494637 -1.24068282 1.32196894 0 0 Z " fill="#592230" transform="translate(59,51)"/>
<path d="M0 0 C3.3 0 6.6 0 10 0 C2.52173913 10.08695652 2.52173913 10.08695652 -1 14 C-1.66 14 -2.32 14 -3 14 C-1.43358249 9.69235185 0.68336156 5.93828536 3 2 C2.01 2 1.02 2 0 2 C0 1.34 0 0.68 0 0 Z " fill="#542437" transform="translate(56,63)"/>
<path d="M0 0 C0.99 0 1.98 0 3 0 C3.98540935 4.33580112 3.953591 6.12554452 2 10 C1.63991339 12.21604163 1.63991339 12.21604163 1.5859375 14.546875 C1.54726562 15.39121094 1.50859375 16.23554687 1.46875 17.10546875 C1.4378125 17.97816406 1.406875 18.85085937 1.375 19.75 C1.33632812 20.63816406 1.29765625 21.52632812 1.2578125 22.44140625 C1.16379127 24.6273998 1.07813857 26.81339062 1 29 C0.67 29 0.34 29 0 29 C-0.19656362 24.72953289 -0.38070249 20.45861919 -0.5625 16.1875 C-0.61857422 14.97255859 -0.67464844 13.75761719 -0.73242188 12.50585938 C-0.78076172 11.34248047 -0.82910156 10.17910156 -0.87890625 8.98046875 C-0.9260376 7.90692139 -0.97316895 6.83337402 -1.02172852 5.72729492 C-1 3 -1 3 0 0 Z " fill="#612C36" transform="translate(96,43)"/>
<path d="M0 0 C0.33 0.66 0.66 1.32 1 2 C3.97 2 6.94 2 10 2 C10.33 2.99 10.66 3.98 11 5 C8.69 7.31 6.38 9.62 4 12 C3.34 11.67 2.68 11.34 2 11 C3.98 8.69 5.96 6.38 8 4 C5.36 3.67 2.72 3.34 0 3 C0 2.01 0 1.02 0 0 Z " fill="#C7BBC0" transform="translate(57,60)"/>
<path d="M0 0 C1 2 1 2 0.4375 4.5 C-1 7 -1 7 -4.125 8.3125 C-5.07375 8.539375 -6.0225 8.76625 -7 9 C-5.03681826 5.46627288 -2.95929119 2.75520215 0 0 Z " fill="#4E354A" transform="translate(59,51)"/>
<path d="M0 0 C0.99 0.33 1.98 0.66 3 1 C2.01 1.495 2.01 1.495 1 2 C0.5359375 2.928125 0.5359375 2.928125 0.0625 3.875 C-1.02905268 6.05810535 -2.20711515 7.37010468 -4 9 C-4.66 8.67 -5.32 8.34 -6 8 C-4.02 5.36 -2.04 2.72 0 0 Z " fill="#384B71" transform="translate(33,40)"/>
<path d="M0 0 C0.66 0.99 1.32 1.98 2 3 C0.71937515 4.7074998 -0.61767557 6.37373596 -2 8 C-2.66 8 -3.32 8 -4 8 C-2.87548273 5.0280615 -1.77706209 2.66559313 0 0 Z " fill="#4C263A" transform="translate(57,69)"/>
<path d="M0 0 C2.97 0 5.94 0 9 0 C8.01 1.485 8.01 1.485 7 3 C5.68 3 4.36 3 3 3 C3 2.34 3 1.68 3 1 C2.01 0.67 1.02 0.34 0 0 Z " fill="#581627" transform="translate(57,63)"/>
</svg>
